# xmcd
#
# Track frame offsets:
#	150
#	24388
#	43575
#	62678
#	83906
#	109954
#	130932
#	153961
#	173218
#	191079
#
# Disc length: 2893 seconds
#
# Revision: 11
# Processed by: cddbd v1.5.2PL0 Copyright (c) Steve Scherf et al.
# Submitted via: Jack! The Knife 20 Magnifico
#
DISCID=800b4b0a
DTITLE=Rage - Carved In Stone
DYEAR=2008
DGENRE=Metal
TTITLE0=Carved In Stone
TTITLE1=Drop Dead!
TTITLE2=Gentle Murders
TTITLE3=Open My Grave
TTITLE4=Without You
TTITLE5=Long Hard Road
TTITLE6=One Step Ahead
TTITLE7=Lost In The Void
TTITLE8=Mouth Of Greed
TTITLE9=Lord Of The Flies
EXTD=Rage and Charly Czajkowski
EXTT0=Victor Smolski
EXTT1=Victor Smolski
EXTT2=Victor Smolski
EXTT3=Victor Smolski
EXTT4=Wagner, Smolski
EXTT5=Wagner, Smolski
EXTT6=Victor Smolski
EXTT7=Wagner, Smolski
EXTT8=Peter Wagner
EXTT9=Wagner, Smolski
PLAYORDER=
